<?xml version="1.0" encoding="utf-8"?>
<!DOCTYPE svg PUBLIC "-//W3C//DTD SVG 1.1//EN" "http://www.w3.org/Graphics/SVG/1.1/DTD/svg11.dtd">
<svg version="1.1" xmlns="http://www.w3.org/2000/svg" xmlns:xlink="http://www.w3.org/1999/xlink" x="0px" y="0px"
   width="35px" height="35px" viewBox="0 0 35 35" enable-background="new 0 0 35 35" xml:space="preserve">
<g>
  <g>
    <path fill-rule="evenodd" clip-rule="evenodd" fill="#34C3E2" d="M12,22C0.137,13.358,15.082-8.672,25,5
      c-0.973,0.027-0.776,1.224-1,2c-0.81,0.19-0.997,1.003-2,1c-7.046-6.887-13.901,5.634-6,9c0,0.333,0,0.667,0,1
      C13.43,18.097,14.57,21.903,12,22z"/>
    <path fill-rule="evenodd" clip-rule="evenodd" fill="#D5DF34" d="M25,5c6.066,10.282-4.31,19.961-7,28
      c-3.572-2.095-3.429-7.904-6-11c2.57-0.097,1.43-3.903,4-4c0-0.333,0-0.667,0-1c3.775,0.442,4.694-1.972,7-3
      c0.132-2.465,0.151-4.818-1-6c1.003,0.003,1.19-0.81,2-1C24.224,6.224,24.027,5.027,25,5z"/>
  </g>
</g>
</svg>
